<?xml version="1.0" encoding="UTF-8"?>
<svg id="Calque_1" data-name="Calque 1" xmlns="http://www.w3.org/2000/svg" version="1.1" viewBox="0 0 152.7 146.9">
  <defs>
    <style>
      .cls-1 {
        fill: #000;
        stroke-width: 0px;
      }
    </style>
  </defs>
  <path class="cls-1" d="M37.5,28.3c36.8,0,73.6,0,110.3,0,3.1,0,5.3,2.7,4.8,5.7-1.5,8.4-3,16.7-4.6,25.1-2.1,11.4-4.2,22.8-6.3,34.3,0,.5-.2,1.1-.3,1.6-.6,2.6-3.1,4.2-5.7,3.7-.4,0-.8-.1-1.1-.1-27.3,0-54.6,0-81.9,0-1.4,0-2.9-.2-4.3-.2-2.5,0-4.4,1.8-5,4.1-.5,2.3.5,4.7,2.6,5.8,1.5.8,3,.9,4.6.4.6-.2,1.1-.3,1.7-.3,28.1,0,56.1,0,84.2,0,2.9,0,5,2.1,5,4.9,0,2.8-2.1,4.8-5,4.8-6.5,0-13-.3-19.5,0-11.3.6-22.7.2-34,.3-11.3.1-22.7,0-34,0-7.2,0-13.2-4.9-14.6-11.9-1.1-5.4.6-10.1,4.6-13.9.5-.5.5-.8.4-1.5-.5-2-.8-4.1-1.2-6.1-2.5-13.8-5.1-27.7-7.6-41.5-1.9-10.2-3.7-20.3-5.6-30.5-.1-.6-.3-.8-.9-.8-6.5-.4-13-.8-19.5-1.2C1.8,10.8,0,8.6,0,5.9,0,3.4,2.2,1.3,4.9,1.4c3.6.1,7.2.4,10.9.6,4.4.3,8.8.5,13.2.9,2.5.2,4.1,1.6,4.6,4.1,1.3,6.9,2.5,13.8,3.8,20.7,0,.2,0,.4.1.6ZM142.1,37.9H39.2c0,.3,0,.5,0,.6.7,3.9,1.4,7.7,2.1,11.6,2.3,12.5,4.6,25.1,6.9,37.6.2,1.3,0,1,1.2,1,27.2,0,54.5,0,81.7,0,.3,0,.6,0,.9,0,.5,0,.6-.2.7-.6.7-3.9,1.4-7.9,2.2-11.8,2.1-11.4,4.2-22.8,6.3-34.3.3-1.4.5-2.8.8-4.3Z"/>
  <path class="cls-1" d="M73,135.1c0,6.5-5.4,11.8-11.9,11.8-6.6,0-11.8-5.4-11.8-11.9,0-6.5,5.4-11.8,11.9-11.8,6.6,0,11.8,5.4,11.8,11.9Z"/>
  <path class="cls-1" d="M126.9,135.1c0,6.5-5.3,11.8-11.8,11.9-6.5,0-11.9-5.3-11.9-11.8,0-6.6,5.3-11.9,11.9-11.9,6.5,0,11.8,5.3,11.8,11.9Z"/>
</svg>