<?xml version="1.0" encoding="UTF-8"?>
<svg id="Calque_1" data-name="Calque 1" xmlns="http://www.w3.org/2000/svg" version="1.1" viewBox="0 0 123.9 98.9">
  <defs>
    <style>
      .cls-1 {
        fill: #c4a283;
        stroke-width: 0px;
      }
    </style>
  </defs>
  <path class="cls-1" d="M12.7,30.4c2.7,1.9,4.9,4.2,6.7,7.1-3.8,1-7.5,1.2-11-.6-2.1-1-3.8-2.5-5-4.5-1.8-2.8-2.9-5.8-3.4-9.2v-2c.9.5,1.6,1,2.5,1.3,1.9.7,4,.7,6.1.7s3.3-.1,4.8.3c4.8,1.2,7.9,5.6,7.7,10.6,0,.7.2,1.2.6,1.7,1.2,1.7,2.4,3.5,3.6,5.3,0-.2.2-.4.2-.7,1-3.6,2.5-6.9,4.7-9.9.3-.4.4-1,.3-1.4-.2-5.5,1.8-9.8,6.5-12.8,2.4-1.5,5.1-2.1,7.9-1.9,1.4,0,2.7.2,4.1.1,3.1-.1,6.2-.5,8.6-2.9,0,.2.2.4.2.5-.3,6.9-2.5,13.1-7.7,17.8-4.1,3.7-9.1,4.4-14.4,3.6-1.1-.2-2.1-.5-3.3-.7,1.6-2.7,3.4-4.9,5.7-6.7,2.3-1.7,4.8-3.1,6.8-4.4-4.4,1.4-8.6,3.9-11.8,8-3.8,5-5.5,10.7-5.7,16.8-.5,17.7,6.5,31.7,21,41.7,18.7,12.8,44.4,10,60.4-6.4,19.2-19.7,18-51.6-2.8-69.7C95.4,3.2,83-.7,69,.7c-2.9.3-5.7,1.1-8.6,1.6-.2,0-.4,0-.5,0v-.2c2.1-.5,4.1-1.1,6.2-1.5,16.2-2.6,30.6,1.4,42.4,12.7,13.1,12.5,17.9,28.1,14.3,45.9-4.3,21.4-22.2,37.2-43.9,39.3-20.9,2-41-9.4-50-28.5-3.2-6.8-4.8-13.9-4.9-21.4,0-3.9-.7-7.6-2.7-10.9-2-3.2-4.8-5.6-8.1-7.4-.1,0-.3-.1-.4-.2v.2Z"/>
  <path class="cls-1" d="M63.3,50.6c.2,0,.3.2.4.2,2.4,1.2,3.6,3.2,3.6,5.9s-1.2,4.9-3.6,6.4c-1.5.9-3.1,1.3-4.8,1.3h-10.1c-1.1,0-1.6-.5-1.6-1.6v-22.9c0-1,.4-1.6,1.3-1.6,3.9,0,7.7,0,11.6,0,.9,0,1.7.3,2.5.6,2.2.9,3.6,2.6,3.9,5,.3,2.6-.5,4.7-2.7,6.1,0,0-.2.2-.4.3v.2ZM51.9,60.6h5.8c.7,0,1.4,0,2.1-.4,1.3-.4,2.1-1.3,2.3-2.7.5-2.6-.9-4.4-3.6-4.7-2-.2-4,0-6,0s-.6.3-.6.4v7.4ZM55.4,48.8h0c1.2,0,2.5,0,3.7-.3,1.8-.3,2.7-1.6,2.6-3.4,0-1.8-1.4-2.9-3.5-2.9h-5.5c-.5,0-.8.2-.8.7v5.2c0,.6.3.8.8.7h2.7Z"/>
  <path class="cls-1" d="M81.9,51.9c0-4.4,1-8,4-10.7,3.8-3.5,8.4-4,13.1-2.4,4.5,1.5,6.8,5,7.5,9.5.6,3.7.3,7.3-1.6,10.7-2.6,4.6-7.8,6.8-13.4,5.7-5-1-8.5-4.7-9.3-10-.2-1.1-.2-2.1-.3-2.7h0ZM87,51.2c0,2,.3,4,1.3,5.8,1.3,2.5,3.4,3.7,6.3,3.7s4.9-1.2,6.1-3.8c1.7-3.8,1.7-7.6,0-11.3-1.2-2.6-3.5-3.7-6.3-3.6-2.8,0-4.9,1.3-6.1,3.8-.8,1.7-1.1,3.5-1.1,5.4h-.1Z"/>
  <path class="cls-1" d="M76.9,51.4v10.1c0,.7-.3,1.5-.6,2.1-.5.8-1.4,1-2.3.8s-1.6-.7-1.9-1.7c0-.3,0-.6,0-1v-20.7c0-1.4.8-2.4,2.1-2.7,1.1-.2,2.3.5,2.7,1.6,0,.5.2,1,.2,1.4v10.1Z"/>
</svg>