<?xml version="1.0" encoding="UTF-8"?>
<svg id="Calque_1" data-name="Calque 1" xmlns="http://www.w3.org/2000/svg" version="1.1" viewBox="0 0 549.5 518.2">
  <defs>
    <style>
      .cls-1 {
        fill: #000;
        stroke-width: 0px;
      }
    </style>
  </defs>
  <path class="cls-1" d="M452.9,493.4c-19.1,9.4-39.2,15.8-60.1,19.7-152.1,28.5-297.2-65.9-330.4-217-20.6-93.7,2.7-177.5,65.5-250.2,8.4-9.7,10.5-20.1,5.5-29.8-1.1-2.2-2.7-4.2-4.1-6.2-2.3-3.2-4.8-6.3-6.9-9.7,9,5.1,16,13.5,27.6,13.5,11.5,0,18.5-8.2,27.3-13.7-5,8.8-13.3,15.9-13.2,27.2,0,11.5,8.2,18.5,13.4,27.6-1.3-.9-2.7-1.8-4-2.7-1.5-1.1-2.9-2.2-4.4-3.3-14.7-11-27.8-9.3-38.8,5.3C1.9,223.7,94.9,465.2,302.9,505.6c49.6,9.6,98.5,5.6,146.3-11,1.2-.4,2.5-.8,3.7-1.2Z"/>
  <path class="cls-1" d="M128.9,118.5c-39.7,116.2,10,232.7,100.6,289.6,52,32.7,108.8,44.5,169.4,35,60.7-9.4,110.6-38.7,150.6-85-60.4,92.5-196.2,139.1-314,75.7-125.1-67.2-155.8-213-106.6-315.4Z"/>
  <path class="cls-1" d="M0,369.2c14.5,14.2,29,15.6,43.8.2-3.9,7.4-10.2,13.1-10.1,22,0,8.8,6,14.5,10.2,21.4-7-4.1-12.9-10.2-22-9.9-9,.4-14.5,6.7-21.5,11,4.1-7.1,10.7-12.9,10.7-22.1,0-9.3-6.6-15.1-11.2-22.8Z"/>
  <path class="cls-1" d="M166.8,195.7c-8.5-7.2-16.5-7.9-25.4-.5,7.1-8.7,6.9-16.9-.8-25.4,9.1,8,17.5,7.4,26.2-.5-7.8,8.8-8.1,17.4,0,26.3Z"/>
</svg>