<?xml version="1.0" encoding="UTF-8"?>
<svg id="Calque_1" data-name="Calque 1" xmlns="http://www.w3.org/2000/svg" version="1.1" viewBox="0 0 257.1 257.2">
  <defs>
    <style>
      .cls-1 {
        fill: #c4a283;
        stroke-width: 0px;
      }
    </style>
  </defs>
  <path class="cls-1" d="M257.1,128.2c.2,71-57.4,128.8-128.4,128.9C58,257.3.1,199.7,0,129-.1,57.7,57.3.1,128.8,0c70.5-.1,128.2,57.5,128.3,128.2ZM251.7,128.5c.3-66.7-54.9-122.3-121.3-123C62.4,4.7,5.9,58.8,5.5,128.1c-.4,67.9,54.8,123.4,122.7,123.7,68.1.2,123.3-54.8,123.6-123.3h0Z"/>
  <path class="cls-1" d="M131.3,105.1c3.8-3.9,7.4-7.4,10.8-11.2.6-.6.7-1.8.7-2.7v-30.7c0-2,.5-3.7,2.8-3.6,2.3,0,2.7,1.8,2.7,3.8v28.7c3.8-1.6,7.4-3,10.8-4.6.5-.2.8-1.4.8-2.1v-11.2c0-2,.2-3.8,2.7-4,1.8-.2,2.8,1.3,2.8,3.9v92.2c0,2.5-1.3,3.3-3.3,3.9-13.7,4.3-23.8,12.8-29.5,26.1-.8,1.8-1.1,4-1.2,6-.2,2.7,0,5.5,0,8.2s-.8,3.2-2.7,3.2-2.7-1.4-2.7-3.2-.2-3.9,0-5.7c.6-5.1-1.3-9.5-3.8-13.7-6-10-14.7-16.9-25.8-20.5-4.5-1.5-4.5-1.4-4.5-6.3v-89.2c0-3.6.8-4.9,2.8-4.9s2.6,1.4,2.6,4.8v10.5c0,1.4.4,2,1.8,2.6,3.2,1.2,6.3,2.6,9.7,4.1,0-.9.2-1.8.2-2.7v-25c0-.7-.3-1.7,0-2.2.7-1,1.7-2.4,2.6-2.4s1.9,1.4,2.6,2.4c.4.5,0,1.5,0,2.2v29.7c0,1.1.7,2.5,1.5,3.4,3.1,3.5,6.5,6.8,10,10.5v-54c0-.8-.2-1.9,0-2.4.6-.9,1.7-2.1,2.6-2.2.9,0,2,1.2,2.6,2.1.4.7.2,1.8.2,2.7v53.8-.3ZM125.6,130.7c1.3-8.5,0-16.3-5.5-23.4-4.3-5.6-9.2-10.3-15.3-13.7-2.3-1.3-4.7-2.2-7.5-3.5v18.1c0,1.8.7,2.5,2.2,3,6,2,11.5,5,16.2,9.3,3.6,3.2,6.7,6.9,10,10.3h0ZM97.2,115.7v17.7c0,2,.5,3.1,2.5,3.8,10.2,3.6,18.4,9.8,24.7,18.6.3.4.4,1,.6,1.5,1.8-9.1.6-16.9-4.8-24-3.6-4.7-7.6-9.1-12.7-12.2-3.1-1.9-6.5-3.5-10.3-5.5h0ZM125.3,182.8c.2,0,.3-.1.5-.2,0-2.7.2-5.3,0-8-.2-2.6-.4-5.4-1.4-7.7-4.9-11.3-13.3-19.1-24.6-24-.7-.3-1.5-.5-2.5-.8v17.6c0,1.8.6,2.6,2.3,3.2,10,3.5,18.2,9.6,24.5,18.2.4.6.9,1.1,1.3,1.7h-.1ZM131.7,157c.4-.5.8-.9,1.1-1.3,5.7-7.8,12.8-14,21.8-17.3,4.6-1.7,5.7-4,5.4-8.5-.4-4.4,0-8.9,0-13.4-.5,0-.7-.2-.8,0-.6.2-1.1.3-1.6.6-8,3.3-14.4,8.5-19.7,15.3-5.7,7.3-7.7,15.4-6.1,24.7h0ZM159.9,90.4c-.8.2-1.2.3-1.6.4-9.6,3.8-17,10.2-22.8,18.7-4.5,6.7-4.7,13.9-4,21.4h.4c6.8-9.5,15.6-16.3,26.7-20.1.5-.2,1.2-1,1.2-1.5v-18.8h.1ZM159.9,142.1c-1.2.4-2.1.7-2.9,1-6.9,3-12.8,7.4-17.7,13.1-6.6,7.7-9.6,16.3-7.6,26.5h.1c.5-.6,1-1.1,1.4-1.7,5.9-7.9,13.4-13.6,22.5-17.3,2.8-1.1,4.2-3.2,4.2-6.3v-15.3Z"/>
</svg>