<?xml version="1.0" encoding="UTF-8"?>
<svg id="Calque_1" data-name="Calque 1" xmlns="http://www.w3.org/2000/svg" version="1.1" viewBox="0 0 52.5 52.5">
  <defs>
    <style>
      .cls-1 {
        fill: #000;
        stroke-width: 0px;
      }
    </style>
  </defs>
  <path class="cls-1" d="M39.9,52.5H12.6c-.2,0-.4-.2-.6-.2C4.9,50.9,0,45.2,0,38,0,30,0,22.1,0,14.2.1,6.5,6.5.1,14.2,0c8,0,16.1,0,24.1,0,4.6,0,8.3,2.1,11.2,5.7,1.6,2,2.3,4.4,3,6.9v27.3c0,.2-.2.5-.2.7-.9,4.4-3.2,7.8-7.1,10-1.6.9-3.5,1.3-5.2,1.9ZM26.3,47.8c3.8,0,7.6,0,11.4,0,6,0,10.1-4.2,10.2-10.1,0-7.6,0-15.2,0-22.8,0-6-4.2-10.1-10.1-10.2-7.6,0-15.2,0-22.8,0-6,0-10.1,4.2-10.2,10.1,0,7.6,0,15.2,0,22.8,0,6,4.2,10.1,10.1,10.2,3.8,0,7.6,0,11.4,0Z"/>
  <path class="cls-1" d="M39.8,26.1c.2,7.4-5.8,13.5-13.3,13.7-7.4.2-13.5-5.8-13.7-13.3-.2-7.4,5.8-13.5,13.3-13.7,7.4-.2,13.5,5.8,13.7,13.3ZM26.2,35.1c4.8,0,8.9-4,8.9-8.8,0-4.8-4-8.9-8.8-8.9-4.9,0-9,4-9,8.9,0,4.8,4,8.9,8.9,8.9Z"/>
  <path class="cls-1" d="M40.4,15.6c-1.9,0-3.4-1.5-3.4-3.4,0-1.9,1.5-3.4,3.4-3.4,1.8,0,3.3,1.5,3.4,3.3,0,1.9-1.5,3.4-3.4,3.5Z"/>
</svg>