<?xml version="1.0" encoding="UTF-8"?>
<svg id="Calque_1" data-name="Calque 1" xmlns="http://www.w3.org/2000/svg" version="1.1" viewBox="0 0 52.5 52.5">
  <defs>
    <style>
      .cls-1 {
        fill: #c4a283;
        stroke-width: 0px;
      }
    </style>
  </defs>
  <path class="cls-1" d="M39.9,52.5H12.6c-.2,0-.4-.2-.6-.2-7.1-1.4-12-7.1-12-14.3V14.2C.1,6.5,6.5.1,14.2,0h24.1C42.9,0,46.6,2.1,49.5,5.7c1.6,2,2.3,4.4,3,6.9v27.3c0,.2-.2.5-.2.7-.9,4.4-3.2,7.8-7.1,10-1.6.9-3.5,1.3-5.2,1.9h0ZM26.3,47.8h11.4c6,0,10.1-4.2,10.2-10.1V14.9c0-6-4.2-10.1-10.1-10.2H15c-6,0-10.1,4.2-10.2,10.1v22.8c0,6,4.2,10.1,10.1,10.2h11.4Z"/>
  <path class="cls-1" d="M39.8,26.1c.2,7.4-5.8,13.5-13.3,13.7-7.4.2-13.5-5.8-13.7-13.3-.2-7.4,5.8-13.5,13.3-13.7,7.4-.2,13.5,5.8,13.7,13.3ZM26.2,35.1c4.8,0,8.9-4,8.9-8.8s-4-8.9-8.8-8.9-9,4-9,8.9,4,8.9,8.9,8.9h0Z"/>
  <path class="cls-1" d="M40.4,15.6c-1.9,0-3.4-1.5-3.4-3.4s1.5-3.4,3.4-3.4,3.3,1.5,3.4,3.3c0,1.9-1.5,3.4-3.4,3.5Z"/>
</svg>