<?xml version="1.0" encoding="UTF-8"?>
<svg id="Calque_1" data-name="Calque 1" xmlns="http://www.w3.org/2000/svg" version="1.1" viewBox="0 0 210.6 234.1">
  <defs>
    <style>
      .cls-1 {
        fill: #000;
        stroke-width: 0px;
      }
    </style>
  </defs>
  <path class="cls-1" d="M70.6,136.8c-3.6-5.8-7.1-11-10.2-16.5-6.2-10.8-12.2-21.8-18.3-32.7-9.4-16.8-7.4-33.6.6-50.1C62.3-2.8,115.9-12.7,148.7,18c13.6,12.7,20.6,28.4,21.6,46.9.3,6.4-1.7,12.2-4.1,17.8-6.1,14.2-14.2,27.3-22.2,40.5-2.7,4.4-5.5,8.8-8.5,13.7,1.3,0,2.2,0,3.2,0,16.7,0,33.5,0,50.2,0,7.7,0,11.7,3.5,12.7,11.1,2,16.5,4,33.1,6.1,49.6.9,7.8,1.9,15.5,2.9,23.3,1.1,8.7-3,13.3-11.8,13.3-62.2,0-124.3,0-186.5,0-1.5,0-3,0-4.5-.4-5.2-1.2-8.2-5.5-7.6-10.7,1.2-10.4,2.5-20.8,3.8-31.3,1.8-14.4,3.6-28.8,5.3-43.2,1-8.3,4.8-11.7,13.2-11.7,15.2,0,30.3,0,45.5,0,.8,0,1.6,0,2.8,0ZM103,178.8c.5-.7.8-1.1,1.1-1.6,10-15.9,20.1-31.8,30.1-47.7,9.4-15,18.9-29.9,26.2-46,2.5-5.4,5.1-11,4.9-17.2-.8-23.4-11.3-41.5-31.5-53.1C99.1-6.6,56.1,10.4,43.7,48.4c-3.7,11.2-4.6,22.5,1.3,33.5,5.1,9.6,9.8,19.5,15.4,28.8,11,18.1,22.5,35.8,33.8,53.7,3,4.7,5.8,9.4,8.9,14.4ZM176.5,142.1c-.7-.2-.9-.3-1.1-.3-7.4,0-14.8,0-22.2,0-.9,0-2.1,1-2.6,1.8-3.7,6.5-7.3,13.1-10.8,19.7-1,1.9-2.2,2.6-4.4,2.6-5.5-.1-11-.1-16.5,0-1,0-2.4.8-2.9,1.6-3.5,5.6-6.7,11.3-10.2,16.9-.6.9-1.8,2.1-2.7,2.1-.9,0-2.1-1.2-2.7-2.1-3.4-5.6-6.7-11.3-10.2-16.9-.5-.8-1.9-1.7-2.9-1.7-24.4,0-48.8,0-73.2-.1-1.6,0-2.2.6-2.3,2.1-.5,4.4-1.1,8.8-1.6,13.1-.2,1.9-.4,3.9-.6,6.1,1.3,0,2.2,0,3.1,0,12,0,24,0,36,0,4.1,0,5,1.5,3.1,5.1-6,11-12,21.9-18,32.9-.7,1.3-1.4,2.5-2.2,4.1,7.7,0,14.8,0,22,0,2.2,0,3.4-.6,4.5-2.6,6.7-12.4,13.5-24.7,20.2-37.1,1-1.9,2.3-2.5,4.4-2.5,8.3,0,16.6,0,25,0,30.2,0,60.5,0,90.7,0,.9,0,1.8,0,2.9,0-.1-1.2-.1-2.1-.3-3-.6-5-1.4-10.1-1.8-15.1-.2-2.4-.9-3.2-3.4-3.2-9,.2-18,0-27,0-3.4,0-4.3-1.6-2.7-4.7.2-.3.3-.6.5-.9,3.3-6,6.5-12,9.9-18.2ZM62.1,229.2h2.8c44.7,0,89.3,0,134,0,.5,0,1,0,1.5,0,3.8-.3,5.7-2.6,5.3-6.3-1.1-9.5-2.4-19-3.4-28.5-.2-1.7-.7-2.2-2.5-2.2-38.4,0-76.8,0-115.2,0-1.6,0-2.4.6-3.1,1.9-3.4,6.3-6.9,12.6-10.4,18.8-2.9,5.3-5.8,10.6-9,16.4ZM85.4,160.7c0-.4,0-.6,0-.7-3.7-5.8-7.3-11.6-11-17.3-.4-.6-1.7-1-2.5-1-17.1,0-34.2,0-51.2,0-3.2,0-5.5,1.4-6,4.5-.9,4.7-1.3,9.5-2,14.4h72.9ZM45.8,192.4c-.5-.2-.8-.3-1-.3-11.5,0-23,0-34.5,0-1.5,0-1.7.8-1.9,2-1.1,9.3-2.3,18.7-3.4,28-.6,4.8,1.4,7,6.2,7.1,4.1,0,8.2,0,12.2,0,1.8,0,2.6-.7,3.4-2.1,4.8-8.9,9.7-17.8,14.6-26.7,1.4-2.6,2.8-5.2,4.2-7.9ZM172,160.8h26.1c-.6-4.8-1-9.5-1.8-14.1-.5-3.3-2.9-4.9-6.2-5-2.1,0-4.2-.1-6.2,0-.8,0-1.8.5-2.2,1.2-3.2,5.8-6.4,11.7-9.7,17.8ZM145.9,141.8c-4.2,0-7.8,0-11.4,0-1.6,0-2.6.5-3.4,1.9-3.2,5.2-6.5,10.3-9.8,15.4-.3.5-.5,1.1-.9,2,4.9,0,9.5,0,14,0,.6,0,1.4-.8,1.7-1.4,2-3.5,4-7.1,5.9-10.7,1.2-2.2,2.3-4.3,3.8-7Z"/>
  <path class="cls-1" d="M145.7,67.3c0,23.5-19.1,42.6-42.7,42.6-23.6,0-42.7-19.1-42.7-42.6,0-23.8,18.9-42.8,42.7-42.8,23.8,0,42.7,18.9,42.7,42.8ZM103.2,29.5c-20.8,0-37.9,16.9-38,37.7-.1,20.6,17.1,37.8,37.9,37.8,20.5,0,37.6-17,37.7-37.5,0-20.9-16.8-38-37.7-38Z"/>
</svg>