<?xml version="1.0" encoding="UTF-8"?>
<svg id="Calque_1" data-name="Calque 1" xmlns="http://www.w3.org/2000/svg" version="1.1" viewBox="0 0 143.4 125.9">
  <defs>
    <style>
      .cls-1 {
        fill: #000;
        stroke-width: 0px;
      }
    </style>
  </defs>
  <path class="cls-1" d="M47.7,42.6h48.4c-.6-1.2-.9-2-1.4-2.7-5.2-9.2-10.5-18.3-15.7-27.4-3-5.3-.6-10.9,5.2-12.2,3.2-.7,6.6.9,8.5,4.3,3.8,6.5,7.5,13.1,11.2,19.7,3.1,5.5,6.3,10.9,9.4,16.4.9,1.5,1.9,2.3,3.7,2.2,6.2,0,12.5,0,18.7,0,4.6,0,7.6,2.7,7.7,7.3,0,3.3,0,6.6,0,10,0,4.1-2.7,6.9-6.8,7.1-1.8.1-2.4.8-2.6,2.5-1.3,13.1-2.6,26.3-4,39.4-1,9.8-8.3,16.7-18.1,16.7-26.9,0-53.9,0-80.8,0-9.4,0-16.6-6.8-17.7-16.6-1.3-11.8-2.3-23.6-3.5-35.5,0-.9-.4-1.8-.4-2.7,0-2.6-.9-4-3.9-4-2.8,0-5.4-3.1-5.6-6.1-.2-3.7-.3-7.5,0-11.2.2-4,3.1-6.8,7.2-6.8,6.4-.1,12.8-.1,19.2,0,1.9,0,3-.7,3.9-2.3,6.7-11.9,13.5-23.8,20.3-35.7,2.9-5.1,8.3-6.3,12.4-2.9,2.9,2.4,3.7,6.1,1.9,9.7-2.8,5.3-5.9,10.6-8.9,15.8-2.4,4.3-4.9,8.5-7.3,12.7-.4.6-.6,1.3-1,2.4ZM111.1,93.2s0,0,0,0c0-5.3,0-10.6,0-15.9,0-3.3-1.1-4.2-5.3-4.2-3.8,0-4.9,1-4.9,4.3,0,10.5,0,21.1,0,31.6,0,3.3,1.2,4.4,4.8,4.5,4.2,0,5.3-.9,5.3-4.4,0-5.3,0-10.6,0-15.9ZM88.2,93.5h0c0-5.3,0-10.6,0-15.9,0-3.4-1.2-4.4-4.8-4.4-4.3,0-5.3.7-5.3,4.4,0,10.5,0,20.9,0,31.4,0,3.6,1.3,4.6,5.2,4.6,3.8,0,4.9-1,4.9-4.6,0-5.1,0-10.3,0-15.4ZM32.4,93.2c0,5.3,0,10.6,0,15.9,0,3.3,1.2,4.4,4.9,4.4,4.2,0,5.3-.8,5.4-4.4,0-10.5,0-21.1,0-31.6,0-3.6-1.1-4.4-5.1-4.4-3.9,0-5.1.9-5.1,4.4,0,5.2,0,10.4,0,15.7ZM55.4,93.2s0,0,0,0c0,5.4,0,10.8,0,16.2,0,3,1,3.9,4.1,4.1.7,0,1.3,0,2,0,2.8-.1,4.1-1.4,4.1-4.2,0-10.1,0-20.3,0-30.4,0-5-.9-5.9-6-5.7-3.1.1-4,1.1-4,4.1,0,5.3,0,10.6,0,16ZM35.4,53.4c-.1-2-1.1-3.1-3-3.3-1.7-.1-3.3,1.3-3.2,3,0,1.8,1,3,2.9,3.1,1.9.1,3-.9,3.4-2.8ZM111.4,56.2c1.8,0,3.3-1.3,3.1-3.1-.1-1.8-1.1-2.9-3-3-2,0-3.1,1.1-3.3,3-.2,1.6,1.5,3.1,3.2,3.1Z"/>
</svg>