<?xml version="1.0" encoding="UTF-8"?>
<svg id="Calque_1" data-name="Calque 1" xmlns="http://www.w3.org/2000/svg" version="1.1" viewBox="0 0 913.9 117.6">
  <defs>
    <style>
      .cls-1 {
        fill: #c4a283;
        stroke: #5b2e14;
        stroke-miterlimit: 10;
        stroke-width: .8px;
      }
    </style>
  </defs>
  <path class="cls-1" d="M7.7,112.2c1-.4,3.4-.9,5.2-1.3.4-5.7.6-10,.7-13.5-.1-4.2-.3-8.2-.5-12.5-2,0-3.8,0-5.4,0,0-1.1.4-3.5.5-4,2.9,0,5.7,0,8.6,0,3.1,0,8.1-.4,11.1-.5.2.5.6,2.6.7,3.2-.5.2-3.5.9-6.9,1.3,0,1.7-.3,6.5-.4,10.8.1,4.7.4,10,.5,12.7,0,.5-.2,1.2-.4,1.9,3,.1,6.9.1,9,0,1.2-2.2,2.6-7,3.6-10.4,1.1,0,3.9.4,4.9.9,0,3.1-.3,10.2-1.2,13.8-7.3.1-16.4,0-21.4.1-2.5.1-5.1.2-7.6.4-.2-.3-.7-1.9-.8-2.8Z"/>
  <path class="cls-1" d="M41.6,111.9c.8-.3,3.6-.9,5.3-1,.5-6.8.7-10,.8-13.8-.1-4.2-.3-8.3-.5-12.5-.8,0-1.5,0-2.3,0-1.3,0-2.7,0-3.1,0,0-.8.3-3.3.5-4,2.9,0,5.8-.1,8.6-.2,1.3,0,7.5-.6,8.4-.6.2.4.7,2.5.8,3.1-.4.2-2.9.7-4.6.9-.1,2.2-.3,7.3-.3,12.7,0,2.4.4,10.2.5,11.3-.1.6-.3,1.4-.4,2.2.8,0,1.7,0,2.5,0,1.3,0,2.6,0,3,0,0,1-.3,3-.7,3.9-3.2,0-6.4.2-9.6.2-2.7.2-5.5.4-8.2.5-.3-.7-.7-2.2-.8-2.8Z"/>
  <path class="cls-1" d="M62.1,101.9c.2-6.3,2-11.8,5-16.4,4.5-3.7,10.3-6.1,15.9-7,2.6,0,6.8.3,8.9.8.2,1.7.2,3.6.2,5.6,0,2.2-.2,4.9-.4,6.6-.9.5-4.4,1.2-5.6,1.3-.6-4.1-1.2-7-1.8-8.5-1.6-.4-3.7-.6-5.9-.4-1.7.5-3.7,1.6-4.9,2.6-1.9,2.9-3.2,6.8-3.5,11.1.9,4.5,4,8.6,8.2,11.2,3.5-.3,9.5-2.1,12.8-3.4.5.4,1.6,2.4,1.9,3.5-5.1,2.9-13.6,5.5-18.9,5.8-5.4-2.3-10.1-7.3-11.9-12.7Z"/>
  <path class="cls-1" d="M94.4,101.2c0-5.8,2.1-12,5.1-16.7,4.3-3.8,9.5-6.2,16.6-7.3,3.7.7,7.7,3,10.3,5.9,1.5,3.4,2.7,8.5,2.9,14.8-3.4,6.6-13.1,14-20.5,15.5-7.4-1.4-12.5-7.1-14.3-12.2ZM120.6,100.5c.3-1.6.4-3.2.4-5.1,0-3.5-.7-7.4-1.7-9.6-1.9-1.7-5.4-3-8.5-3.3-2,.5-4,1.7-5.3,3-1.8,2.8-3,6.7-3.1,11.5,1.4,5.3,5.4,9.2,9.8,10.3,2.9-.9,6.7-3.9,8.4-6.8Z"/>
  <path class="cls-1" d="M151.9,104.4c-1.7-3.1-3.2-6.7-4-8.8-1.3.4-3.8,1.1-5.1,1.4.2,3.4.3,6,.4,7.1-.1.4-.3,1.5-.4,2.2,1.9-.2,4.2-.2,4.9-.2,0,.7-.3,2.9-.7,3.9-3,.2-6.1.4-9.1.6-2.5.3-5.1.5-7.6.8-.2-.4-.8-2.2-.9-2.7.5-.3,3.4-1.1,5.1-1.3.5-6.7.7-10,.8-13.8-.1-3.8-.3-8.3-.5-12.5-1.9.2-4.5.3-5.2.2,0-.6.5-3.4.7-4,2.9-.2,5.7-.3,8.6-.5,1,0,5.5-.6,7-.6,2.4-.1,7.6.2,10,1,2.5,1.4,5.3,4.4,6.2,7.1-1.4,3.1-4.9,6.5-8.2,8.7,2.1,4.4,4.8,7.3,7.3,9.3,1.5-.8,3.4-2.1,4.7-3.4.7.4,1.8,1.5,2.1,2.2-1.8,2.7-7.8,8.1-11.3,9.6-1.7-1.5-3.5-3.7-4.8-6.3ZM149.1,91.3c1.9-1.3,3.4-3,4.2-4.7-.4-2.4-2.3-5.1-3.8-6.1-1.4-.3-3.1-.5-4.6-.4-.7,0-1.4,0-2.1.1,0,2.1-.1,7.4-.2,10.6,0,.7,0,1.5,0,2.2,2-.2,4.9-1,6.5-1.7Z"/>
  <path class="cls-1" d="M190.9,101.3c-.9-1.3-3.5-4.8-5.4-7.4-2.6-3.7-4.9-7-7.7-10.5,0,1.8,0,4.6-.1,6.3,0,4.9.4,8.8.5,12.2,0,.6-.2,1.4-.3,2.1,2-.2,5.2-.3,6-.3,0,1.1-.3,2.9-.7,4-2.8.2-5.6.4-8.5.6-2.6.3-5.2.6-7.8.9-.3-.7-.7-2.2-.8-2.8,1-.4,3.4-1,5.2-1.4.2-3.1.6-8.8.7-12.8,0-4.1-.2-10.9-.4-13.6-1.3,0-3.8.3-5.2.3,0-.9.3-3.3.5-4.2,2.2,0,4.4-.2,6.7-.3,1,0,2.5-.2,4-.4,1.1,0,2.1-.2,2.9-.3,1,1,6.1,9.1,9.8,14.3,1.2,1.7,3.9,5.4,5.9,8,0-1.6.1-5,0-7.7,0-4.1-.2-8.7-.4-11.6-.6,0-1.2,0-1.8.1-1.8.1-3.6.3-4.2.3,0-1.2.3-3.5.5-4.1,2.7-.2,5.3-.4,8-.6,1.3,0,6.6-.8,7.6-.9.3.4.7,2.3.7,3-2,.7-3.5,1-4.4,1.2-.2,2.2-.4,6.3-.6,11.3-.2,4.5-.4,11.1-.3,14.6.4.7,1,1.5,1.5,2.2-1.3,1.2-5,2.8-7.4,3.4-1.6-1.9-3.1-4-4.6-6.2Z"/>
  <path class="cls-1" d="M208.3,103c.9-.4,3-1.1,4.7-1.6.3-4.2.7-9.8.8-13.6-.2-4.2-.3-8.3-.5-12.5-2,.2-4.2.5-5.1.5,0-.7.1-3.8.2-4.3,2.9-.2,5.7-.4,8.6-.6,4.2-.4,7.6-.7,12.2-1.4,1.8-.3,4.3-.8,5.5-.9.6,0,1.3-.1,1.8-.1.2,1.9.2,3.8.2,5.6,0,1.9-.2,3.9-.3,5.5-.9.4-3.6,1.1-4.8,1.3-.5-3.3-1.2-6.1-1.7-7.6-3,.3-6,.6-8.4,1.1,0,2.1-.2,6.9-.3,11.1,1.6-.4,5.9-1.4,9-2.1.3.9,1,3.8,1.2,5.7-2.7,0-6.8.2-10,.4.2,2.5.3,6.7.4,8.7-.1.4-.3,1.2-.4,1.8,2.1,0,4.9,0,6.8-.2,1,0,2.1-.2,2.6-.3,1-2.1,2-4.9,3-8.2,1,0,3.7.1,4.7.3,0,2.8-.4,7.6-1.2,11.4-4.8.5-10.7.9-15.5,1.3-2.9.2-5.3.4-7,.5-2,.2-3.9.5-5.9.7-.2-.4-.6-2.3-.6-2.7Z"/>
  <path class="cls-1" d="M241.7,111c1.1-2.6,2.1-5.8,2.5-8.4,0-2-.8-5.8-1.2-8.3,2.6,0,6.8.6,8.9,1.4-.4,1.8-1.3,5-2.4,7.3-1.3,2.9-3.1,6.2-4.7,8.5-.9,0-2.4-.3-3.2-.6Z"/>
  <path class="cls-1" d="M270.9,97.3c1-.5,3.4-1.2,5.2-1.8.4-5.8.6-10.1.7-13.5-.1-4.2-.3-8.2-.5-12.5-2,.3-3.8.4-5.4.5,0-1.1.4-3.6.5-4,2.9-.3,5.7-.6,8.6-.9,3.1-.3,8.1-1.2,11.1-1.6.2.5.6,2.6.7,3.1-.5.3-3.5,1.2-6.9,1.9,0,1.7-.3,6.6-.4,10.9.1,4.7.4,9.9.5,12.6,0,.5-.2,1.2-.4,1.9,3-.1,6.9-.5,9-.8,1.2-2.3,2.6-7.3,3.6-10.8,1.1-.1,3.9,0,4.9.4,0,3.1-.3,10.2-1.2,13.9-7.3.8-16.4,1.6-21.4,2.1-2.5.4-5.1.7-7.6,1.1-.2-.3-.7-1.9-.8-2.7Z"/>
  <path class="cls-1" d="M302.8,93.6c.9-.4,2.4-.8,4-1.1,1.6-4.6,4.6-12.5,6.2-16.3,2.3-5.5,4.6-10.1,6.2-13.3-.3-.6-.5-1.2-.6-1.7,1.6-.8,5.6-1.9,7.9-2.1,2.1,4.4,4.6,10.1,6.3,14.6,1.3,3.5,4,10.8,5.3,15.1,1.5-.3,3-.4,3.6-.5,0,.7-.3,3-.5,4-2.6.3-5.2.6-7.8.9-2.6.4-5.2.7-7.8,1.1-.2-.3-.8-2.2-.8-2.7.5-.3,2.7-.9,4.4-1.4-.4-2-1-4.1-1.8-6.6-4.1.5-8.2,1-12.4,1.6-.5,1.5-1.3,4.1-1.7,6.2,1.7-.3,4.6-.6,5.3-.6,0,.8-.4,3.1-.7,4-2.7.3-5.5.5-8.2.8-2,.3-4.1.6-6.1.9-.3-.6-.7-2.2-.8-3ZM326.4,79.4c-.7-2.2-1.4-4.4-2.1-6.4-.7-1.9-1.9-4.8-2.6-5.9-.5.9-1.6,3.6-2.3,5.3-.8,2-2,5.4-3.2,9,3.1-.4,7.9-1.3,10.3-1.9Z"/>
  <path class="cls-1" d="M357.9,88.1c1.2-.5,3.1-1.1,4.7-1.5.5-5.9,1-11.8,1.5-17.7.2-3,.3-6.4.2-8.9-1.1.2-3.8.6-5.1.7,0-1,.3-3.1.6-4.3,3.2-.3,6.3-.7,9.5-1,1.9-.2,5.4-.5,6.8-.5.9,1.8,3,6,4.6,10.1.9,2.4,2.3,5.5,3.3,8.3,2.2-6.8,6.4-16.9,8.1-20.3.9-.3,2.9-.7,5.1-.9.9-.1,1.9-.2,2.9-.3,2.1-.2,4.2-.6,5.4-.6.2.6.6,2.2.7,3-1,.5-3.2,1.4-4.1,1.7,0,2.1,0,4.8,0,8.7.2,3.4,1,12.2,1.2,14.8-.1.7-.2,1.3-.3,2,2-.3,3.8-.5,4.6-.5,0,.9-.2,2.9-.5,4-3,.4-6,.7-9,1.1-2.2.4-4.5.7-6.7,1.1-.3-.3-.8-2.1-.8-2.6,1.2-.5,2.9-1.1,4.6-1.6.1-4.8.1-12.6,0-16-.1-2.8-.3-6.1-.6-8-2,3.7-6.4,14.8-8.1,21.1.2.5.4,1,.6,1.7-1.3,1.4-4.5,3.6-6.7,4.5-.4-1.2-1.2-3.6-1.9-5.6-1-2.8-2.4-6.5-3.8-10-1.1-2.7-3.1-7.1-4.3-8.8-.2,1.2-.6,4.2-.8,7.8-.1,6.1-.1,11.4-.1,13.7,0,.4-.3,1.3-.4,2,1.9-.3,4.4-.6,5.1-.6,0,.7-.3,2.9-.5,4-2.4.3-4.7.5-7.1.8-2.6.4-5.1.8-7.7,1.2-.2-.3-.7-2-.8-2.7Z"/>
  <path class="cls-1" d="M406.1,82c.9-.4,2.4-.8,4-1.1,1.6-4.6,4.6-12.6,6.2-16.3,2.3-5.5,4.6-10.2,6.2-13.3-.3-.6-.5-1.2-.6-1.7,1.6-.8,5.6-2,7.9-2.2,2.1,4.4,4.6,10.1,6.3,14.5,1.3,3.5,4,10.7,5.3,15,1.5-.3,3-.5,3.6-.5,0,.7-.3,3-.5,4-2.6.3-5.2.6-7.8.9-2.6.4-5.2.8-7.8,1.2-.2-.3-.8-2.2-.8-2.7.5-.3,2.7-.9,4.4-1.4-.4-2-1-4.1-1.8-6.6-4.1.6-8.2,1.1-12.4,1.7-.5,1.5-1.3,4.1-1.7,6.3,1.7-.3,4.6-.6,5.3-.6,0,.8-.4,3.1-.7,4-2.7.3-5.5.6-8.2.9-2,.3-4.1.6-6.1.9-.3-.6-.7-2.2-.8-3ZM429.7,67.5c-.7-2.2-1.4-4.4-2.1-6.4-.7-1.9-1.9-4.8-2.6-5.9-.5.9-1.6,3.6-2.3,5.3-.8,2-2,5.4-3.2,9.1,3.1-.5,7.9-1.4,10.3-2Z"/>
  <path class="cls-1" d="M444.5,68.4c.2-6.3,2-11.7,4.9-16.6,3.4-3.4,9.7-7.1,15.9-8.6,2.6-.3,7.1-.2,9.3,0,.2,1.7.2,3.3.2,5.4,0,2.1-.2,4.3-.4,6-1,.4-4.2,1.4-5.6,1.6-.6-3.8-1.1-5.9-1.5-7.3-1.6-.4-4.5-.4-6.5-.1-1.7.5-4.1,2.1-5.1,3.3-1.8,2.7-3.2,7-3.5,11.6,1.1,4.9,4.7,8.6,8.3,10.3,2.6-.4,5.7-1.4,8.5-2.7.5-2.1.8-4.1,1-5.8-2.9.3-6.3.7-7.4.8-.3-.4-1.2-2.4-1.4-3.6,3.4-.8,12.6-2.9,16.3-3.7.6,1.3,1.2,3.8,1.3,5.6-.8,0-1.9.2-2.6.3-.2,3.6-.5,9.6-.8,12.1-1.8,0-4.3-1-5.5-1.7-3,1.4-9.2,4-13.5,4.7-5.2-1.5-10.4-6.4-12-11.6Z"/>
  <path class="cls-1" d="M480.8,73.5c.8-.4,3.6-1.3,5.3-1.6.5-6.8.7-10.1.8-13.9-.1-4.2-.3-8.3-.5-12.4-.8,0-1.5.2-2.3.3-1.3.2-2.7.3-3.1.3,0-.8.3-3.3.5-4,2.9-.3,5.8-.7,8.6-1,1.3-.2,7.5-1.3,8.4-1.4.2.4.7,2.4.8,3-.4.3-2.9.9-4.6,1.4-.1,2.2-.3,7.3-.3,12.7,0,2.4.4,10.1.5,11.3-.1.6-.3,1.5-.4,2.2.8,0,1.7-.2,2.5-.3,1.3-.2,2.6-.2,3-.2,0,1-.3,3.1-.7,4-3.2.4-6.4.8-9.6,1.1-2.7.5-5.5.9-8.2,1.4-.3-.7-.7-2.1-.8-2.8Z"/>
  <path class="cls-1" d="M503,70.8c.9-.4,3-1.2,4.7-1.7.3-4.2.7-9.8.8-13.6-.2-4.2-.3-8.3-.5-12.5-2,.3-4.2.6-5.1.7,0-.7.1-3.8.2-4.3,2.9-.3,5.7-.6,8.6-.9,4.2-.5,7.6-1,12.2-1.8,1.8-.3,4.3-.9,5.5-1,.6,0,1.3-.1,1.8-.1.2,1.9.2,3.8.2,5.6,0,1.9-.2,3.9-.3,5.5-.9.4-3.6,1.2-4.8,1.4-.6-3.2-1.2-6.1-1.7-7.6-3,.4-6,.8-8.4,1.3,0,2.2-.2,6.9-.3,11.1,1.6-.4,5.9-1.6,9-2.3.3.8,1,3.8,1.2,5.6-2.7.2-6.8.4-10,.7.2,2.5.3,6.7.4,8.6-.1.4-.3,1.2-.4,1.9,2.1,0,4.9-.2,6.8-.4,1-.1,2.1-.2,2.6-.4,1-2.1,2-4.9,3-8.3,1-.1,3.7,0,4.7.2,0,2.8-.4,7.6-1.2,11.5-4.8.6-10.7,1.2-15.5,1.7-2.9.3-5.3.6-7,.8-2,.3-3.9.6-5.9.9-.2-.4-.6-2.2-.6-2.7Z"/>
  <path class="cls-1" d="M551.8,67.3c.3-3.3,1.9-9.8,2.6-11.6,1.2-.1,3.8.2,4.8.5,0,1,.3,6,.4,7.1.9.2,2.4.2,3.3,0,1.4-.2,3-.5,4.1-1,1-.8,2.5-2.6,2.9-3.8-1.6-2.1-4.7-4.6-8.4-6.9-3.8-2.5-7.7-5-8.9-6.4,0-2.3,1.3-5.6,2.5-7.5,1.8-2,6.3-4.8,8.8-5.8,2.2-.6,5.7-1.1,7.6-1.3,2-.2,3.5-.3,4.8-.3.2,1.7.2,3.1.2,4.5,0,1.9-.2,4.8-.4,6.6-.8.5-3.8,1.4-5.1,1.6-.5-3.6-1.3-7.1-1.8-8.5-.6,0-1,0-1.4.1-.9,0-1.9.3-2.9.7-1,.3-2.4,1.1-3.2,1.8-.6.9-1.1,2.3-1.2,3.3.8,1.4,3.4,3.5,7.6,6.2,4.9,3.2,7.8,5,9.9,6.5-.3,2.1-1.7,5.4-2.9,7.4-2.1,2.3-5.8,4.9-9.1,6.2-.7.1-1.2.2-1.8.3-4.3.5-9.8.6-12.5.2Z"/>
  <path class="cls-1" d="M576.9,61.9c.9-.4,2.4-.8,4-1.1,1.6-4.6,4.6-12.6,6.2-16.3,2.3-5.5,4.6-10.1,6.2-13.3-.3-.6-.5-1.2-.6-1.7,1.6-.8,5.6-1.9,7.9-2.1,2.1,4.4,4.6,10.1,6.3,14.6,1.3,3.5,4,10.8,5.3,15.1,1.5-.3,3-.4,3.6-.4,0,.7-.3,3-.5,4-2.6.3-5.2.5-7.8.8-2.6.4-5.2.7-7.8,1.1-.2-.3-.8-2.2-.8-2.7.5-.3,2.7-.9,4.4-1.4-.4-2-1-4.1-1.8-6.6-4.1.5-8.2,1-12.4,1.6-.5,1.5-1.3,4.1-1.7,6.2,1.7-.3,4.6-.6,5.3-.6,0,.8-.4,3.1-.7,4-2.7.3-5.5.5-8.2.8-2,.3-4.1.6-6.1.9-.3-.6-.7-2.2-.8-3ZM600.5,47.6c-.7-2.2-1.4-4.4-2.1-6.4-.7-1.9-1.9-4.8-2.6-5.9-.5.9-1.6,3.6-2.3,5.3-.8,2-2,5.4-3.2,9,3.1-.5,7.9-1.4,10.3-1.9Z"/>
  <path class="cls-1" d="M640.9,52.3c-.9-1.2-3.5-4.7-5.4-7.3-2.6-3.6-5-6.9-7.7-10.3,0,1.8,0,4.6-.1,6.3,0,4.9.4,8.8.5,12.2,0,.6-.2,1.5-.3,2.1,2-.3,5.2-.5,6-.5,0,1.1-.3,2.9-.7,4-2.8.3-5.6.6-8.5.9-2.6.4-5.2.8-7.8,1.1-.3-.7-.7-2.2-.8-2.7,1-.4,3.4-1.1,5.2-1.5.2-3.1.5-8.8.7-12.8,0-4.1-.2-10.9-.4-13.5-1.3.1-3.9.4-5.2.5,0-.9.3-3.3.6-4.2,2.2-.2,4.4-.4,6.7-.5,1,0,2.5-.3,4-.5,1.1-.1,2.1-.3,2.9-.3,1,1,6.1,8.9,9.8,14.1,1.2,1.6,3.9,5.3,5.9,7.9,0-1.6.1-5,0-7.7,0-4.1-.2-8.7-.4-11.6-.5,0-1.2.1-1.8.2-1.8.2-3.6.4-4.2.4,0-1.2.3-3.5.5-4.1,2.7-.2,5.3-.5,8-.7,1.3-.1,6.6-.9,7.6-1,.3.4.7,2.2.7,3-2,.7-3.5,1.1-4.4,1.3-.2,2.2-.4,6.3-.6,11.3-.2,4.5-.4,11.1-.3,14.6.4.7,1,1.4,1.5,2.2-1.3,1.2-5,2.9-7.4,3.5-1.6-1.9-3.1-3.9-4.6-6.1Z"/>
  <path class="cls-1" d="M657.8,56c.3-3.3,1.9-9.8,2.6-11.5,1.2-.1,3.8.3,4.8.6,0,1,.3,6,.4,7.1.9.2,2.4.2,3.3.1,1.4-.1,3-.4,4.1-.9,1-.8,2.5-2.6,2.9-3.7-1.6-2.1-4.7-4.7-8.4-7.1-3.8-2.6-7.7-5.2-8.9-6.6,0-2.3,1.3-5.6,2.5-7.5,1.8-1.9,6.3-4.7,8.8-5.6,2.2-.6,5.7-1,7.6-1.1,2-.2,3.5-.3,4.8-.2.2,1.7.2,3.1.2,4.5,0,1.9-.2,4.8-.4,6.6-.8.5-3.8,1.3-5.1,1.5-.5-3.6-1.3-7.1-1.8-8.5-.6,0-1,0-1.4,0-.9,0-1.9.2-2.9.6-1,.3-2.4,1.1-3.2,1.8-.6.9-1.1,2.2-1.2,3.2.8,1.5,3.4,3.5,7.6,6.4,4.9,3.3,7.8,5.1,9.9,6.7-.3,2.1-1.7,5.4-2.9,7.3-2.1,2.3-5.8,4.8-9.1,6.1-.7.1-1.2.2-1.8.2-4.3.4-9.8.4-12.5,0Z"/>
  <path class="cls-1" d="M699.4,49.7c.9-.4,2.4-.7,4-1,1.6-4.6,4.6-12.4,6.2-16.1,2.3-5.4,4.6-10,6.2-13.1-.3-.6-.5-1.2-.6-1.8,1.6-.7,5.6-1.8,7.9-1.9,2.1,4.5,4.6,10.3,6.3,14.8,1.3,3.5,4,10.9,5.3,15.3,1.5-.2,3-.3,3.6-.3,0,.7-.3,3-.5,4-2.6.2-5.2.4-7.8.6-2.6.3-5.2.5-7.8.8-.2-.3-.8-2.2-.8-2.7.5-.3,2.7-.8,4.4-1.2-.4-2-1-4.2-1.8-6.6-4.1.4-8.2.8-12.4,1.2-.5,1.5-1.3,4.1-1.7,6.2,1.7-.3,4.6-.4,5.3-.4,0,.8-.4,3.1-.7,4-2.7.2-5.5.4-8.2.6-2,.2-4.1.5-6.1.7-.3-.6-.7-2.2-.8-3ZM723,36.1c-.7-2.2-1.4-4.5-2.1-6.5-.7-1.9-1.9-4.9-2.6-6-.5.9-1.6,3.5-2.3,5.2-.8,2-2,5.3-3.2,9,3.1-.4,7.9-1.1,10.3-1.6Z"/>
  <path class="cls-1" d="M738.9,47c1-.5,3.4-1.1,5.2-1.6.4-5.7.6-10.1.7-13.5-.1-4.2-.3-8.2-.5-12.5-2,.2-3.8.3-5.4.3,0-1.1.4-3.5.5-4,2.9-.2,5.7-.4,8.6-.6,3.1-.2,8.1-.9,11.1-1.2.2.5.6,2.6.7,3.1-.5.3-3.5,1.1-6.9,1.7,0,1.7-.3,6.6-.4,10.9.1,4.7.4,9.9.5,12.7,0,.5-.2,1.2-.4,1.9,3,0,6.9-.3,9-.4,1.2-2.2,2.6-7.2,3.6-10.6,1.1,0,3.9.3,4.9.6,0,3.1-.3,10.2-1.2,13.9-7.3.5-16.4,1-21.4,1.3-2.5.3-5.1.6-7.6.9-.2-.3-.7-1.9-.8-2.7Z"/>
  <path class="cls-1" d="M772.7,35.2c.2-6.3,2-11.8,5-16.6,4.5-3.8,10.3-6.4,15.9-7.4,2.6-.1,6.8.2,8.9.7.2,1.7.2,3.6.2,5.6,0,2.2-.2,4.9-.4,6.6-.9.5-4.4,1.3-5.6,1.3-.6-4.1-1.2-7-1.8-8.4-1.6-.4-3.7-.5-5.9-.3-1.7.5-3.7,1.7-4.9,2.7-1.9,3-3.2,6.9-3.5,11.1.9,4.5,4,8.5,8.2,11,3.5-.4,9.5-2.3,12.8-3.6.5.4,1.6,2.4,1.9,3.5-5.1,2.9-13.6,5.6-18.9,6.1-5.4-2.2-10.1-7-11.9-12.4Z"/>
  <path class="cls-1" d="M805,33.8c0-5.8,2.1-12,5.1-16.7,4.3-3.8,9.5-6.2,16.6-7.2,3.7.7,7.7,3.1,10.3,6.1,1.5,3.5,2.7,8.6,2.9,14.9-3.4,6.5-13.1,13.7-20.5,15.2-7.4-1.4-12.5-7.1-14.3-12.2ZM831.1,33.2c.3-1.6.4-3.2.4-5.1,0-3.5-.7-7.4-1.7-9.6-1.9-1.7-5.4-3.1-8.5-3.3-2,.5-4,1.7-5.3,3-1.8,2.8-3,6.7-3.1,11.5,1.4,5.3,5.4,9.2,9.8,10.3,2.9-.9,6.7-3.8,8.4-6.7Z"/>
  <path class="cls-1" d="M841.9,32.3c0-5.8,2.1-11.9,5.1-16.7,4.3-3.7,9.5-6.1,16.6-6.9,3.7.8,7.7,3.2,10.3,6.2,1.5,3.5,2.7,8.6,2.9,14.9-3.4,6.4-13.1,13.5-20.5,14.8-7.4-1.6-12.5-7.3-14.3-12.4ZM868.1,32.1c.3-1.6.4-3.2.4-5.1,0-3.5-.7-7.4-1.7-9.6-1.9-1.7-5.4-3.2-8.5-3.5-2,.4-4,1.6-5.3,2.9-1.8,2.8-3,6.7-3.1,11.4,1.4,5.3,5.4,9.2,9.8,10.5,2.9-.8,6.7-3.7,8.4-6.5Z"/>
  <path class="cls-1" d="M877.1,40.5c1-.4,3.4-.9,5.2-1.3.4-5.7.6-10,.7-13.5-.1-4.2-.3-8.2-.6-12.5-2,0-3.8.1-5.4,0,0-1.1.4-3.5.5-4,2.9,0,5.7,0,8.6-.1,3.1,0,8.1-.4,11.1-.5.2.5.6,2.6.7,3.2-.5.2-3.5.8-6.9,1.3,0,1.7-.3,6.5-.4,10.8.1,4.7.4,9.9.5,12.7,0,.5-.2,1.2-.4,1.9,3,.1,6.9.1,9,.1,1.2-2.2,2.6-7,3.6-10.4,1.1,0,3.8.5,4.9.9,0,3.1-.3,10.2-1.2,13.8-7.3,0-16.4,0-21.4,0-2.5.1-5.1.3-7.6.4-.2-.3-.7-1.9-.8-2.8Z"/>
</svg>