<?xml version="1.0" encoding="UTF-8"?>
<svg id="Calque_1" data-name="Calque 1" xmlns="http://www.w3.org/2000/svg" version="1.1" viewBox="0 0 99.5 100.5">
  <defs>
    <style>
      .cls-1 {
        fill: #000;
        stroke-width: 0px;
      }
    </style>
  </defs>
  <path class="cls-1" d="M99.5,49.9c-4.3.9-8.5,1.9-12.8,2.8-8.6,1.8-17.1,3.7-25.7,5.3-2.1.4-2.9,1.2-3.2,3.3-1.9,12.7-3.9,25.3-5.9,38,0,.4-.2.8-.6,1.2-.2-.8-.4-1.5-.6-2.3-2.6-12.3-5.2-24.6-7.7-36.9-.4-1.7-1-2.5-2.8-2.8-12.5-1.9-25-3.9-37.5-5.8-.6,0-1.3-.3-2.6-.5,1.2-.4,1.7-.7,2.3-.8,12.4-2.6,24.8-5.2,37.2-7.8,1.9-.4,2.8-1,3.1-3.1,1.8-12.4,3.8-24.7,5.8-37,.1-.8.3-1.6.9-2.3,1.7,8,3.4,16.1,5.1,24.1,1,5,2.2,9.9,3.1,14.9.3,1.9,1.2,2.5,3.1,2.8,13,2,26,4,39,6.1,0,.2,0,.4,0,.7Z"/>
  <path class="cls-1" d="M755.5,49.5c-1.8-8.5-3.6-16.9-5.3-25.4-.9-4.5-2-8.9-2.8-13.5-.3-1.9-1.1-2.7-3.1-3-12.3-1.8-24.5-3.8-36.8-5.7-.8-.1-1.6-.3-3-.6,1-.4,1.4-.6,1.9-.7,12.2-2.6,24.4-5.2,36.7-7.6,2.5-.5,3.5-1.5,3.9-4.1,1.8-12.2,3.8-24.4,5.7-36.5,0-.6.3-1.2.8-1.8,1,4.4,1.9,8.9,2.9,13.3,1.8,8.5,3.6,16.9,5.3,25.4.4,2,1.3,2.7,3.2,3,12,1.8,24,3.7,36,5.6,1.1.2,2.3.4,3.5,1-.8.2-1.7.4-2.5.6-12.3,2.6-24.6,5.2-36.9,7.7-1.6.3-2.4.9-2.6,2.6-1.9,12.4-3.9,24.8-5.8,37.3-.1.8-.3,1.6-.4,2.4-.2,0-.4,0-.6,0Z"/>
  <path class="cls-1" d="M732.8-37.5c-3.5.8-7.1,1.5-10.6,2.3-4.4.9-4.4.9-5.1,5.3-.6,3.5-1.1,7-2.2,10.6-.8-3.7-1.8-7.3-2.3-11.1-.4-2.9-1.5-4.3-4.6-4.5-3.9-.3-7.7-1.1-11.5-2.3,4.3-.9,8.5-1.8,12.8-2.6,1.8-.3,2.6-1.2,2.8-3.1.5-4.3,1.3-8.5,2.5-12.8.9,4.1,1.9,8.2,2.6,12.4.4,2.1,1.3,3,3.5,3.3,4.1.4,8.2,1.3,12.2,1.9,0,.2,0,.3,0,.5Z"/>
  <path class="cls-1" d="M785.3,38.5c.5,2.4,1.2,4.8,1.5,7.2.3,2.1,1.1,3.2,3.4,3.3,2.5.2,5,.8,7.6,1.7-2.5.5-5,1.2-7.6,1.6-1.9.3-2.9.9-3.1,3.1-.2,2.6-.8,5.2-1.8,7.9-.5-2.3-1.2-4.6-1.4-6.9-.3-2.7-1.6-3.8-4.3-3.9-2.4-.1-4.7-.7-7.2-1.5,2.7-.6,5.4-1.2,8.1-1.7,1.8-.3,2.7-1,2.9-3,.2-2.6.8-5.2,1.3-7.8.2,0,.3,0,.5,0Z"/>
</svg>