<?xml version="1.0" encoding="UTF-8"?>
<svg id="Calque_1" data-name="Calque 1" xmlns="http://www.w3.org/2000/svg" version="1.1" viewBox="0 0 960.9 762">
  <defs>
    <style>
      .cls-1 {
        fill: #6a338a;
        opacity: .7;
        stroke-width: 0px;
      }
    </style>
  </defs>
  <path class="cls-1" d="M48.5,221.2C115.8,139.1,199.9,62.5,322.5,41.1c43.8-7.7,86.4-21.8,129.6-32.7,48.3-12.2,93.8-7.8,139.3,15.2,33,16.7,69.8,25.9,104.6,39.2,17.1,6.5,33.9,14.1,50.3,22.4,31,15.8,46.9,39.9,50.7,76.3,4.8,46.8,14.7,93.3,26.3,138.9,5,19.7,18.2,38,30.3,55.2,21.4,30.5,45.6,59.1,67.1,89.6,49,69.7,50,118,2.8,189.2-29,43.8-67,78.6-113.2,104.2-36.1,20.1-74.4,25.3-114.8,19.3-67.6-10.1-130.6-34.4-189.7-67-80.4-44.4-158.1-93.6-237.7-139.3-29.2-16.8-61-29.2-91.5-43.8-33.3-15.9-71.6-20.8-100.4-47.1-30.1-27.4-57.8-56.1-68.3-96.7-12.9-50.2,5.3-93,40.7-142.8Z"/>
</svg>