<svg width="954" height="762" viewBox="0 0 954 762" fill="none" xmlns="http://www.w3.org/2000/svg">
<g clip-path="url(#clip0_5_122)">
<path d="M43.5923 224.298C110.937 142.177 194.489 65.3622 317.162 43.5748C439.835 22.0667 403.508 21.5081 446.541 10.6144C494.884 -1.67594 540.432 2.51394 585.981 25.4186C618.954 41.8988 655.84 51.1166 690.77 64.5242C707.816 71.228 724.861 78.7698 741.348 86.8703C772.645 102.512 788.294 126.534 792.206 163.126C796.956 210.053 807.295 256.421 818.752 301.951C824.062 321.783 837.195 339.939 849.211 356.978C870.728 387.425 895.039 415.916 916.276 446.362C965.178 515.914 966.295 564.238 919.35 635.466C890.568 679.32 852.285 714.235 806.457 739.933C770.41 760.324 732.127 765.631 691.608 759.486C623.984 749.43 561.111 725.408 501.591 692.727C421.113 648.594 343.149 599.433 263.51 554.182C234.169 537.422 202.592 525.132 171.854 510.607C138.322 494.686 100.039 489.937 71.2566 463.68C41.0773 436.306 13.413 407.815 2.79439 367.034C-10.3392 316.755 7.82426 274.018 43.0334 224.298H43.5923Z" fill="black"/>
</g>
<defs>
<clipPath id="clip0_5_122">
<rect width="954" height="762" fill="white"/>
</clipPath>
</defs>
</svg>
