<?xml version="1.0" encoding="UTF-8"?>
<svg id="Calque_1" data-name="Calque 1" xmlns="http://www.w3.org/2000/svg" xmlns:xlink="http://www.w3.org/1999/xlink" version="1.1" viewBox="0 0 836.2 741.7">
  <defs>
    <style>
      .cls-1 {
        clip-path: url(#clippath);
      }

      .cls-2 {
        fill: none;
      }

      .cls-2, .cls-3 {
        stroke-width: 0px;
      }

      .cls-3 {
        fill: #000;
      }
    </style>
    <clipPath id="clippath">
      <rect class="cls-2" x="-5.6" y="-94.1" width="829" height="954" transform="translate(-87 643.4) rotate(-70.8)"/>
    </clipPath>
  </defs>
  <g class="cls-1">
    <path class="cls-3" d="M601.4,12.2c66.4,23.7,118.8,62.1,154.7,122,16,27,32.2,53.7,47.5,81,44.6,80.3,40.6,159.5-8.6,236-19.7,30.7-41.4,60.3-63.4,89.6-30,40.1-68.9,70-115.7,86.9-92.5,33.6-185.4,67-279.3,96.4-63.3,19.8-129.1,23.6-194.3,3.5-49.6-15.1-84.3-44.5-99.9-95.2-7-22.6-14.7-45.1-23.9-66.9-25.7-62.6-21.3-121.5,9.3-182.8,46.7-93.2,96.1-183.6,174-255.4C283.7,52.5,375.9.2,490.4,0c36.9-.2,74.1,7.8,111.1,12v.3Z"/>
  </g>
</svg>