<?xml version="1.0" encoding="UTF-8"?>
<svg id="Calque_1" data-name="Calque 1" xmlns="http://www.w3.org/2000/svg" xmlns:xlink="http://www.w3.org/1999/xlink" version="1.1" viewBox="0 0 765 905.8">
  <defs>
    <style>
      .cls-1 {
        clip-path: url(#clippath);
      }

      .cls-2 {
        fill: none;
      }

      .cls-2, .cls-3 {
        stroke-width: 0px;
      }

      .cls-3 {
        fill: #000;
      }
    </style>
    <clipPath id="clippath">
      <rect class="cls-2" x="31.5" y="-20.3" width="829" height="954" transform="translate(-183 565.5) rotate(-55.5)"/>
    </clipPath>
  </defs>
  <g class="cls-1">
    <path class="cls-3" d="M137.5,224.6c38.7-47,74.2-97.1,116.5-140.6C340.9-5.2,438.7-20.4,551.4,34.3c63.6,30.9,121.2,71.2,165.4,127.9,40.6,52.1,57,110.3,40.7,175.4-10.4,41.5-21.3,82.7-33.5,123.7-15,49.7-17,99.2-5.9,150.2,13.6,62.3,24.3,125.4,33.6,188.3,2.7,18.2-.5,39.5-7.4,56.7-14.6,35.8-46.2,51.7-82.8,47.6-51.4-5.8-104.1-11.9-153.3-27.6-84.8-27-167.1-61.2-250.6-92.3-16.1-6.1-32.8-12.2-49.5-15.9-62.5-13.5-113.8-47.3-156.7-92.4C-3.6,618-8.4,546.4,9.2,472.2c19-81.4,63.1-150.7,109.9-218.3,6.6-9.7,13.1-19.1,19.7-28.7-.5-.3-.7-.5-1.2-.8l-.2.2Z"/>
  </g>
</svg>