<?xml version="1.0" encoding="UTF-8"?>
<svg id="Calque_1" data-name="Calque 1" xmlns="http://www.w3.org/2000/svg" version="1.1" viewBox="0 0 765 905.8">
  <defs>
    <style>
      .cls-1 {
        fill: #96921e;
        opacity: .7;
        stroke-width: 0px;
      }
    </style>
  </defs>
  <path class="cls-1" d="M140.9,220.7c38.9-46.5,74.7-96,117.2-138.8C345.7-6.2,443.4-20.3,555.1,35.3c63.2,31.5,120,72.1,163.4,129,39.9,52.3,55.9,110.3,38.8,175.2-10.8,41.2-22,82.3-34.6,122.9-15.3,49.4-17.9,98.5-7.3,149.5,12.8,62.2,22.9,125,31.5,187.9,2.5,18.2-.7,39.3-7.9,56.3-14.8,35.4-46.4,51-82.8,46.5-51.3-6.3-103.6-12.8-152.4-28.8-84.2-27.6-165.9-62.7-248.7-94.3-16.1-6.2-32.4-12.6-49.2-16.3-62.3-14-113-48.2-155.2-93.7C-3.4,611.1-7.5,539.9,10.6,466.2c19.8-80.8,64.2-149.3,111.5-216.1,6.7-9.4,13.3-18.9,19.9-28.4-.4-.3-.7-.7-1.1-1Z"/>
</svg>