<?xml version="1.0" encoding="UTF-8"?>
<svg id="Calque_1" data-name="Calque 1" xmlns="http://www.w3.org/2000/svg" version="1.1" viewBox="0 0 834.7 742">
  <defs>
    <style>
      .cls-1 {
        fill: #864213;
        opacity: .7;
        stroke-width: 0px;
      }
    </style>
  </defs>
  <path class="cls-1" d="M603.1,12.6c66.3,24.1,118.5,62.7,154.1,123,15.9,27,32,54,47,81.5,44.3,80.8,39.7,160.1-10,236.7-19.9,30.7-41.9,60.3-64,89.5-30.2,40.1-69.4,69.8-116.4,86.6-92.9,33.3-186,66.4-280.2,95.6-63.6,19.7-129.3,23-194.6,2.7-49.5-15.4-84.2-45.2-99.5-95.9-6.8-22.7-14.5-45.2-23.4-67.2-25.3-62.9-20.5-122,10.4-183.2,47.2-93.4,97.2-184,175.8-255.4C284.8,51.8,377.6-.2,492,0c37,0,74,8.2,111,12.6Z"/>
</svg>