<?xml version="1.0" encoding="UTF-8"?>
<svg id="Calque_1" data-name="Calque 1" xmlns="http://www.w3.org/2000/svg" version="1.1" viewBox="0 0 731.7 309.6">
  <defs>
    <style>
      .cls-1 {
        fill: #000;
        stroke-width: 0px;
      }
    </style>
  </defs>
  <path class="cls-1" d="M492.2,190.5c3,2.7,6.1,5.2,8.9,8.1,1.8,1.8,3.2,2,5.4.6,3.5-2.2,7.2-4.2,11.5-5.7-1.6,3.7-3.1,7.6-5,11.1-1.4,2.6-.9,4.2,1.3,5.9,3.1,2.5,5.9,5.3,8.5,8.8-4.2-.4-8.4-.7-12.6-1.3-2.3-.3-3.5.4-4.4,2.6-1.6,4-3.5,7.8-5.7,12.6-1.3-5.7-2.3-10.3-3.4-15.4-5.4,1-10.7,1.9-16,2.9-65.5,12.2-131.4,22.6-197.6,30-44.7,5-89.5,8.7-134.5,7.9-20.7-.3-41.4-1.7-61.6-7.4-8.9-2.5-17.7-5.6-23.8-12.9-2.5-3-4.1-6.9-5.2-10.6-.8-3-1.9-4.1-5-4.8-8-1.9-16.1-3.7-23.6-6.8-16.5-6.9-23-20-19.1-37.4,1.1-5.1,3.1-10,5.1-14.7-1.6,6.3-3.6,12.5-4.6,18.8-1.9,12.1,2.7,21.6,13,28.2,9.4,6.1,20.2,8.5,31.2,9.8,1,.1,2.5-1.4,3.2-2.5.8-1.2,1-2.7,1.9-4-.5,2.1-.9,4.2-1.6,7.1,4.2.4,8,.9,11.8,1,30.3,1,60.3-2.2,90.2-6.9,78.2-12.4,154.6-32.6,230.5-54.5,67.5-19.5,134.4-40.9,200.8-64,.7-.2,1.3-.4,2-.7,5.1-2.1,5.7-3.2,3.9-8.3-1.8-5.4-3.7-10.7-4.8-16.7,4.8,3.3,9.7,6.5,14.3,10.1,2.8,2.2,4.7,2.2,7.5,0,4.5-3.8,9.4-7.2,15.1-11.5-2.1,6.9-3.6,12.7-5.6,18.3-1.1,3.1-.7,5,2.3,6.8,5,3.1,9.7,6.7,14.5,10.1-.1.4-.2.8-.3,1.3-6.2,0-12.4.1-18.6,0-2.5,0-3.7.8-4.4,3.2-1.7,6-3.6,11.9-6.3,18-2.2-6.3-4.4-12.6-6.8-19.3-6.4,2-12.7,4-19,6-100.5,32-201.8,61.2-304.8,84.2-44.1,9.9-88.5,18.4-133.5,23.6-28.8,3.3-57.6,5.4-86.6,2.3-.5,0-1.1,0-2,.2-.1,7,3,12.5,8.4,15.9,5.8,3.7,12.2,6.7,18.7,8.8,15.8,4.9,32.2,5.8,48.7,6.4,30.8,1,61.6-.6,92.1-4.3,45.8-5.6,91.7-11.6,137.2-19,41.7-6.8,83.1-15.6,124.6-23.6,6-1.1,6.1-1.6,5-7.4-.7-3.4-1.4-6.8-2.1-10.2.3-.1.6-.3,1-.4Z"/>
  <path class="cls-1" d="M388.6,93.4c2.7,1.6,5.5,3,8,4.8,1.9,1.3,3.3,1.3,5.1-.4,2.3-2.3,4.9-4.3,8.2-7.1-.9,4.1-1.4,7.3-2.3,10.3-.8,2.5,0,3.8,2.2,5,2.7,1.4,5.2,3.1,8.9,5.3-4.4.5-7.6,1-10.9,1.2-2.2.1-3.1,1.1-3.5,3.2-.6,3.2-1.5,6.4-2.4,10.5-2-4.3-3.6-7.8-5.3-11.5-12.3,5-24.3,9.9-36.3,14.6-60.2,23.6-120.9,46-183.4,63.1-26.2,7.2-52.5,13.9-79.7,15.8-11.1.8-22.4-.1-33.6-.8-5-.3-11.5-5-14.7-9.6,13,11.8,28.5,10.5,43.5,9.1,36.4-3.3,71.2-13.9,105.8-25,64.5-20.8,127.4-46,189.6-73.1,5.5-2.4,5.4-2.4,3.1-7.9-1-2.2-1.9-4.5-2.9-6.8.2-.2.4-.4.7-.6Z"/>
  <path class="cls-1" d="M715.4,147.3c-2-4.7-2.6-9.8-5.5-11.8-2.6-1.9-7.6-.4-11.9-1.3,2.3-1.7,4.4-3.7,6.8-5.1,2.7-1.6,3-3.5,1.8-6.2-1.1-2.5-1.8-5.2-3.1-9.1,3.5,2.4,6.1,3.9,8.4,5.8,1.9,1.5,3.4,1.7,5.4,0,2.3-2.1,5-3.8,8.4-6.4-1.3,4.4-2.5,7.5-3.1,10.7-.2,1.2.4,3.1,1.4,4,2.4,2.1,5.1,3.7,7.6,6.7-3.1,0-6.1.1-9.2,0-2.3-.1-3.5.7-4.1,3-.7,3.1-1.9,6-3,9.7Z"/>
  <path class="cls-1" d="M449.2,34.4c-1.3-8.6-5.5-12.2-13.6-9.6.1-.9,0-1.3.2-1.4,7-3.5,8.4-8.7,3.8-15.3.9-.1,1.3-.3,1.4-.1,5.4,5.5,10.7,5.9,15.7-.8.5.8.8,1,.7,1.2-3.5,6.9-2.1,12,5.7,14.6-.6.7-.8,1.1-1,1-7.7-1.3-12.1,1.8-12.8,10.4Z"/>
  <path class="cls-1" d="M141,300.4c-2.8.2-6.4-.6-8.3.9-2,1.4-2.3,5-3.7,8.4-1.4-3.2-1.9-6.8-3.9-8.2-2-1.4-5.5-.5-9.1-1,7-3.2,8.9-7.9,3.9-14.6.4,0,.9,0,1.3,0,2.5,1.6,4.9,3.2,7.5,4.9,2.5-1.8,4.8-3.5,7.2-5.2-2.5,6.4-2,11.6,6.2,14.2-.4.2-.7.5-1.1.7Z"/>
  <path class="cls-1" d="M547.2,165.8c7.2-3.6,8.8-8.4,5.1-15,2.5,1.5,5.1,4.3,7.6,4.3,2.4,0,4.8-2.8,7.9-4.6-3.4,6.5-2.7,11.6,5,14.7-7.8-1.1-11.8,1.8-12.4,9.7-1.7-7.2-5.1-11-13.3-9Z"/>
  <path class="cls-1" d="M636.1,12.3c-6.6-1.1-9.3,1.9-10.2,7.9-1.2-6-4.3-8.7-10.7-7.5,4.9-3.1,7.2-6.5,3.8-12.3,4.6,4,8.6,4.3,12.8-.5-2,5.4-1.9,9.7,4.3,12.3Z"/>
  <path class="cls-1" d="M15.4,235.2c-2.8,5.2-1.3,8.6,3.8,11.2-5.7-.8-8.7,1.3-9.4,7.2-1.2-5.5-3.9-8-9.8-6.6,4.1-3,7.4-6,3.2-11.6,4.6,4.4,8.2,3.9,12.2,0Z"/>
  <path class="cls-1" d="M295.9,234.9c-1-5.8-4-7.6-9.3-7,1.5-1.4,3.9-2.6,4.4-4.3.5-1.8-.7-4.1-1.5-7.5,4.2,4.4,8,5.1,11.9,1-.4,2.1-1.6,4.4-1.1,6.2.5,1.7,2.8,2.8,5.3,5-6-1.1-9.1.9-9.8,6.6Z"/>
  <path class="cls-1" d="M78.1,168.6c-5.1-.8-7,1.9-7.9,6.3-.9-4.6-3.4-6.7-8.4-6,4.5-2.3,5.1-5.5,2.6-9.6q5.6,2.5,10.5.2c-1.3,3.8-1.5,7.1,3.1,9.1Z"/>
</svg>