<?xml version="1.0" encoding="UTF-8"?>
<svg id="Calque_1" data-name="Calque 1" xmlns="http://www.w3.org/2000/svg" version="1.1" viewBox="0 0 200 230">
  <defs>
    <style>
      .cls-1 {
        fill: #c4a283;
        stroke-width: 0px;
      }
    </style>
  </defs>
  <path class="cls-1" d="M106,0h39c.3,3.3.5,6.6,1,9.9,3.8,25.3,29.6,46.7,54,45.1v39c-19.8.3-37.7-5.7-54.7-16.9v6.4c0,24.5.1,48.9,0,73.4-.2,33.5-22.1,62.1-53.7,70.6-3.5.9-7.1,1.6-10.6,2.5h-16c-1.1-.3-2.2-.7-3.3-.9-29.8-4.9-52.5-26.1-59.3-55.4-1-4.5-1.6-9.1-2.4-13.7v-4c.3-1.8.7-3.5.9-5.3,3.2-28,17.6-47.9,43.1-59.8,12.2-5.7,25.1-7.2,38.4-5.5v39.8c-1.6-.3-2.7-.5-3.8-.7-17.5-3.3-34.7,8-38.6,25.2-4,17.7,6.4,35.5,23.7,40.1,17.3,4.7,35.1-4.9,40.4-22.1,1.4-4.5,1.8-9.5,1.8-14.3C106,102.3,106,51.1,106,0Z"/>
</svg>