<?xml version="1.0" encoding="UTF-8"?>
<svg id="Calque_1" data-name="Calque 1" xmlns="http://www.w3.org/2000/svg" version="1.1" viewBox="0 0 349.2 350.4">
  <defs>
    <style>
      .cls-1 {
        fill: #000;
        stroke-width: 0px;
      }
    </style>
  </defs>
  <path class="cls-1" d="M168.4,0c25.8.3,48.6,4.3,70.7,12.8,13.7,5.2,25.8,13.3,38.1,21,18.2,11.4,31.2,27.4,42.8,45,7.9,12.1,14.1,25.1,19.2,38.6,2.7,7,4,14.4,5.7,21.7,2.9,12.5,4.5,25.1,4.2,37.9-.5,23.6-5,46.3-14.4,68-7.5,17.2-17.3,32.8-29.8,46.8-4,4.5-8.2,8.7-12.7,12.7-1.9,1.6-2.1,1.6-2.6-.7-4.2-17.7-12.2-33.6-23.6-47.7-13.3-16.4-29.9-28.2-49.5-35.9-17.1-6.7-34.9-8.8-53-7.3-21.1,1.7-40.3,9.1-57.5,21.5-10.9,7.8-20.5,17-28.2,28-8.6,12.3-14.7,25.7-18.3,40.3-.2,1,0,2.4-1.3,2.7-1.1.2-1.7-.9-2.4-1.6-14.1-13.2-26-28.1-35.3-45-10.6-19.2-17.2-39.7-19.5-61.5-1.9-18.1-1.4-36.2,1.7-54.2,3.8-22.2,11.6-42.9,23.9-61.8,9.2-14.1,20.1-26.7,33-37.6,12.5-10.6,26.1-19.6,40.7-26.9C117.7,8.2,136.1,2.6,155.4.8c5-.5,10.1-.9,13-.7ZM174.6,197.2c35.3,1.1,66.9-30.1,66.5-67.3-.4-35-29.9-66.3-67.3-65.9-36,.4-65.7,30.3-65.7,66.7,0,37,30.9,67.3,66.5,66.4Z"/>
  <path class="cls-1" d="M175.3,227.1c24.7,0,46.5,8,65.4,23.8,19.1,15.9,30.7,36.5,35.8,60.8.7,3.5-.2,5.9-3.1,7.9-18,12.6-37.8,21.3-59.2,26.2-11.3,2.6-22.7,4-34.3,4.4-14.4.6-28.5-.9-42.6-3.9-22.5-4.8-43.2-13.8-62-27-2.6-1.8-3.5-3.8-2.8-7,4.3-20.8,12.8-39.5,27.9-54.6,16.3-16.4,36.4-25.7,59.1-29.6,5.3-.9,10.6-1.2,15.9-1.1Z"/>
  <path class="cls-1" d="M174.8,182.7c-28.2.2-52-22.4-52.1-51.8,0-29.3,22.9-51.9,52-52.2,28-.3,51.7,23.5,51.7,51.5,0,29.1-22.9,52.4-51.6,52.5Z"/>
</svg>